<svg width="28" height="28" viewBox="0 0 28 28" fill="none" xmlns="http://www.w3.org/2000/svg">
<path d="M3.5 10.5V22.1667C3.5 22.7855 3.74583 23.379 4.18342 23.8166C4.621 24.2542 5.21449 24.5 5.83333 24.5H22.1667C22.7855 24.5 23.379 24.2542 23.8166 23.8166C24.2542 23.379 24.5 22.7855 24.5 22.1667V10.5" stroke="#FFBF35" stroke-width="1.75"/>
<path d="M23.8993 3.5H19.2419L19.8253 9.33333C19.8253 9.33333 20.9919 10.5 22.7419 10.5C23.6606 10.5012 24.548 10.1668 25.2374 9.55967C25.3103 9.49156 25.3646 9.40601 25.3952 9.31109C25.4259 9.21617 25.4318 9.11501 25.4124 9.01717L24.5888 4.08333C24.5612 3.92034 24.4769 3.77236 24.3507 3.66559C24.2245 3.55883 24.0646 3.50017 23.8993 3.5Z" stroke="#FFBF35" stroke-width="1.75"/>
<path d="M19.2419 3.5L19.8253 9.33333C19.8253 9.33333 18.6586 10.5 16.9086 10.5C15.1586 10.5 13.9919 9.33333 13.9919 9.33333V3.5H19.2419Z" stroke="#FFBF35" stroke-width="1.75"/>
<path d="M13.9919 3.5V9.33333C13.9919 9.33333 12.8252 10.5 11.0752 10.5C9.32524 10.5 8.15857 9.33333 8.15857 9.33333L8.7419 3.5H13.9919Z" stroke="#FFBF35" stroke-width="1.75"/>
<path d="M8.74189 3.5H4.08572C3.92005 3.49994 3.75972 3.55864 3.63326 3.66566C3.50679 3.77269 3.42239 3.9211 3.39505 4.0845L2.57255 9.01833C2.55333 9.11618 2.55931 9.21731 2.58992 9.31221C2.62053 9.40711 2.67478 9.49266 2.74755 9.56083C3.13022 9.89917 3.98539 10.5012 5.24189 10.5012C6.99189 10.5012 8.15855 9.3345 8.15855 9.3345L8.74189 3.5Z" stroke="#FFBF35" stroke-width="1.75"/>
</svg>
