<svg width="20" height="24" viewBox="0 0 20 24" fill="none" xmlns="http://www.w3.org/2000/svg">
<path d="M2.99996 23.6667C2.35829 23.6667 1.80879 23.438 1.35146 22.9807C0.894128 22.5233 0.66585 21.9742 0.666628 21.3333V7.33334C0.666628 6.69168 0.895294 6.14218 1.35263 5.68484C1.80996 5.22751 2.35907 4.99923 2.99996 5.00001H5.33329C5.33329 3.71668 5.79024 2.61807 6.70413 1.70418C7.61802 0.790288 8.71663 0.333344 9.99996 0.333344C11.2833 0.333344 12.3819 0.790288 13.2958 1.70418C14.2097 2.61807 14.6666 3.71668 14.6666 5.00001H17C17.6416 5.00001 18.1911 5.22868 18.6485 5.68601C19.1058 6.14334 19.3341 6.69245 19.3333 7.33334V21.3333C19.3333 21.975 19.1046 22.5245 18.6473 22.9818C18.19 23.4392 17.6409 23.6675 17 23.6667H2.99996ZM2.99996 21.3333H17V7.33334H14.6666V9.66668C14.6666 9.99723 14.5546 10.2745 14.3306 10.4985C14.1066 10.7225 13.8297 10.8341 13.5 10.8333C13.1694 10.8333 12.8921 10.7213 12.6681 10.4973C12.4441 10.2733 12.3325 9.99645 12.3333 9.66668V7.33334H7.66663V9.66668C7.66663 9.99723 7.55463 10.2745 7.33063 10.4985C7.10663 10.7225 6.82974 10.8341 6.49996 10.8333C6.16941 10.8333 5.89213 10.7213 5.66813 10.4973C5.44413 10.2733 5.33252 9.99645 5.33329 9.66668V7.33334H2.99996V21.3333ZM7.66663 5.00001H12.3333C12.3333 4.35834 12.1046 3.80884 11.6473 3.35151C11.19 2.89418 10.6409 2.6659 9.99996 2.66668C9.35829 2.66668 8.80879 2.89534 8.35146 3.35268C7.89413 3.81001 7.66585 4.35912 7.66663 5.00001Z" fill="white"/>
</svg>
